<?xml version="1.0" standalone="no"?>
<!DOCTYPE svg PUBLIC "-//W3C//DTD SVG 20010904//EN"
 "http://www.w3.org/TR/2001/REC-SVG-20010904/DTD/svg10.dtd">
<svg version="1.0" xmlns="http://www.w3.org/2000/svg"
 width="59.000000pt" height="52.000000pt" viewBox="0 0 59.000000 52.000000"
 preserveAspectRatio="xMidYMid meet">

<g transform="translate(0.000000,52.000000) scale(0.100000,-0.100000)"
fill="#000000" stroke="none">
<path d="M136 455 c-6 -17 -81 -21 -91 -5 -13 22 -20 8 -20 -43 0 -51 1 -52
30 -52 25 0 35 8 62 50 18 28 43 53 56 57 21 6 20 6 -4 7 -15 1 -29 -5 -33
-14z m-26 -33 c0 -4 -12 -20 -26 -35 -25 -27 -50 -32 -48 -9 1 7 2 21 3 32 1
16 8 20 36 20 19 0 35 -3 35 -8z"/>
<path d="M211 453 c0 -13 4 -23 10 -23 7 0 9 -9 5 -23 -3 -14 1 -31 10 -43 15
-18 15 -18 5 1 -14 30 3 53 55 75 47 21 70 18 77 -8 4 -15 5 -15 6 -1 0 9 -6
22 -15 30 -13 10 -23 10 -62 -4 -60 -22 -79 -21 -85 1 -4 13 -5 11 -6 -5z"/>
<path d="M472 447 c-43 -21 -44 -21 -58 -2 -12 17 -14 17 -14 2 0 -10 6 -20
13 -23 8 -3 12 -16 9 -33 -3 -19 1 -30 12 -34 13 -5 14 -3 4 13 -15 23 0 44
53 71 43 21 65 24 72 9 3 -6 4 -5 3 2 -4 21 -48 19 -94 -5z"/>
<path d="M278 323 c7 -3 16 -2 19 1 4 3 -2 6 -13 5 -11 0 -14 -3 -6 -6z"/>
<path d="M478 323 c7 -3 16 -2 19 1 4 3 -2 6 -13 5 -11 0 -14 -3 -6 -6z"/>
<path d="M130 245 c-31 -18 -77 -19 -83 -2 -4 9 -6 9 -6 -1 -1 -7 10 -17 23
-23 18 -9 31 -7 64 10 45 23 77 27 85 11 3 -6 4 -5 3 2 -4 19 -57 20 -86 3z"/>
<path d="M220 168 c-28 -15 -50 -52 -50 -85 0 -34 17 -36 18 -2 1 32 26 79 42
79 10 0 20 -29 23 -67 0 -12 4 -20 8 -17 4 2 6 25 3 49 -4 52 2 55 41 19 23
-21 27 -31 22 -62 -6 -34 -5 -35 8 -18 44 58 -47 139 -115 104z"/>
<path d="M260 34 c0 -8 5 -12 10 -9 6 4 8 11 5 16 -9 14 -15 11 -15 -7z"/>
</g>
</svg>
