<svg width="64" height="64" viewBox="0 0 64 64" fill="none" xmlns="http://www.w3.org/2000/svg">
<path d="M5.12 7.67997C5.12 8.44798 14.72 8.95997 31.36 8.95997H57.6V29.44V49.92H40.96C30.72 49.92 24.32 50.432 24.32 51.2C24.32 51.968 31.104 52.48 42.24 52.48C53.376 52.48 60.16 52.992 60.16 53.76C60.16 54.528 53.376 55.04 42.24 55.04C31.104 55.04 24.32 55.552 24.32 56.32C24.32 57.088 31.616 57.6 43.52 57.6C61.696 57.6 62.72 57.472 62.72 55.168C62.72 53.76 62.208 52.224 61.44 51.84C60.672 51.328 60.16 42.24 60.16 28.672V6.39997H32.64C15.104 6.39997 5.12 6.91197 5.12 7.67997Z" fill="black"/>
<path d="M5.37607 17.024C1.79207 20.864 1.79207 25.728 5.50407 29.184C9.34407 32.768 14.2081 32.768 17.6641 29.056C21.2481 25.216 21.2481 20.352 17.5361 16.896C13.6961 13.312 8.83207 13.312 5.37607 17.024ZM15.8721 18.688C17.0241 19.712 17.9201 21.76 17.9201 23.04C17.9201 28.544 11.0081 31.36 7.16807 27.392C3.20007 23.552 6.01607 16.64 11.5201 16.64C12.8001 16.64 14.8481 17.536 15.8721 18.688Z" fill="black"/>
<path d="M25.6 15.36C25.6 16.128 29.056 16.64 33.28 16.64C37.504 16.64 40.96 16.128 40.96 15.36C40.96 14.592 37.504 14.08 33.28 14.08C29.056 14.08 25.6 14.592 25.6 15.36Z" fill="black"/>
<path d="M44.8 15.36C44.8 16 46.848 16.64 49.28 16.64C51.712 16.64 53.76 16 53.76 15.36C53.76 14.592 51.712 14.08 49.28 14.08C46.848 14.08 44.8 14.592 44.8 15.36Z" fill="black"/>
<path d="M25.6 21.76C25.6 22.528 31.104 23.04 39.68 23.04C48.256 23.04 53.76 22.528 53.76 21.76C53.76 20.992 48.256 20.48 39.68 20.48C31.104 20.48 25.6 20.992 25.6 21.76Z" fill="black"/>
<path d="M30.72 32.64C28.288 36.48 27.648 36.864 24.832 35.84C23.04 35.072 18.176 34.56 13.952 34.56C3.32803 34.56 1.28003 36.736 1.28003 48.64C1.28003 53.76 1.79203 57.6 2.56003 57.6C3.32803 57.6 3.84003 53.888 3.84003 48.896C3.84003 43.776 4.48003 39.552 5.37603 38.656C7.29603 36.736 18.816 36.608 24.32 38.656C28.16 39.936 28.8 39.808 30.208 37.632C34.56 31.232 35.712 30.08 36.992 31.36C37.888 32.256 36.864 34.688 33.792 38.656C29.824 44.16 29.184 44.672 26.112 43.52C19.84 41.088 19.2 41.6 19.2 49.92C19.2 54.144 19.712 57.6 20.48 57.6C21.248 57.6 21.76 54.784 21.76 51.328V44.928L25.856 46.08C30.72 47.488 31.744 46.848 37.248 38.272C40.448 33.152 40.96 31.616 39.68 30.08C37.12 26.88 33.664 27.904 30.72 32.64Z" fill="black"/>
</svg>
