<?xml version="1.0" standalone="no"?>
<!DOCTYPE svg PUBLIC "-//W3C//DTD SVG 20010904//EN"
 "http://www.w3.org/TR/2001/REC-SVG-20010904/DTD/svg10.dtd">
<svg version="1.0" xmlns="http://www.w3.org/2000/svg"
 width="231.000000pt" height="310.000000pt" viewBox="0 0 231.000000 310.000000"
 preserveAspectRatio="xMidYMid meet">

<g transform="translate(0.000000,310.000000) scale(0.100000,-0.100000)"
fill="#000000" stroke="none">
<path d="M1076 3069 c-16 -16 -37 -31 -47 -34 -11 -4 -19 -16 -19 -28 0 -27
-16 -54 -26 -44 -4 4 0 23 9 42 9 20 17 43 16 53 0 10 -5 6 -11 -10 -5 -16
-16 -28 -24 -28 -8 0 -14 -6 -14 -13 0 -7 -19 -31 -41 -52 -23 -22 -39 -34
-35 -27 18 31 -13 6 -47 -39 -43 -56 -83 -84 -142 -100 -57 -14 -84 -30 -79
-44 3 -7 -5 -20 -18 -29 -31 -22 -41 -20 -26 4 7 11 18 20 23 20 6 0 11 9 12
20 1 14 -2 18 -10 13 -7 -4 -36 -8 -66 -9 -37 -1 -62 -8 -83 -24 -16 -12 -31
-20 -32 -18 -1 1 -14 20 -29 40 -16 21 -34 53 -42 70 l-14 33 -1 -45 c0 -25
-5 -63 -10 -85 -6 -25 -5 -42 1 -46 6 -3 6 -14 0 -30 -7 -16 -10 -19 -10 -7
-1 9 -12 29 -26 44 l-25 27 0 -39 c0 -54 -15 -75 -26 -37 -7 25 -9 21 -14 -32
-5 -55 -7 -58 -17 -35 -10 22 -12 18 -13 -35 -1 -57 -1 -59 -15 -35 -14 24
-14 24 -15 -24 0 -42 -2 -47 -15 -36 -14 12 -15 8 -9 -31 7 -40 6 -43 -10 -30
-22 18 -32 7 -19 -22 23 -46 24 -60 7 -53 -13 5 -15 2 -9 -11 15 -36 18 -66 6
-59 -16 11 -13 -11 6 -42 15 -22 15 -25 2 -15 -25 20 -29 4 -8 -30 21 -35 25
-52 9 -42 -18 11 -11 -6 15 -37 28 -33 33 -53 10 -44 -23 8 -18 -5 12 -37 19
-19 22 -26 10 -22 -26 11 -21 -6 10 -32 21 -17 25 -25 15 -31 -9 -6 -6 -14 13
-32 17 -16 21 -26 14 -31 -8 -4 -2 -13 16 -25 23 -15 25 -19 11 -24 -13 -4 -7
-13 29 -38 25 -18 50 -32 55 -32 6 0 10 -139 10 -374 l0 -375 43 -23 c42 -23
42 -24 45 -86 3 -58 5 -63 35 -79 18 -9 69 -40 114 -69 99 -64 106 -84 45
-143 -65 -63 -136 -172 -157 -239 -7 -23 -6 -23 23 -8 l29 15 7 -61 c3 -33 6
-81 6 -104 0 -24 4 -44 9 -44 4 0 18 27 29 61 30 87 77 162 152 240 36 38 64
75 62 83 -2 8 9 21 24 29 25 13 31 13 59 -6 30 -19 31 -23 27 -74 -3 -33 -1
-53 6 -53 6 0 13 6 15 13 5 11 11 -28 10 -61 -1 -18 17 -15 24 5 4 11 11 2 20
-31 8 -26 18 -44 23 -41 6 4 10 -1 10 -9 0 -9 -5 -16 -11 -16 -5 0 -7 -5 -3
-11 5 -8 -3 -10 -25 -7 -17 2 -31 1 -31 -3 0 -10 32 -22 56 -20 11 1 28 -7 39
-19 18 -19 18 -20 -1 -20 -11 0 -25 5 -32 12 -6 6 -22 13 -34 15 -13 1 -34 5
-48 9 -20 4 -23 3 -12 -7 22 -23 13 -28 -23 -13 -44 18 -51 18 -34 -2 13 -15
11 -17 -19 -12 -25 4 -32 1 -28 -9 3 -8 0 -13 -7 -12 -18 3 -87 -12 -87 -20 0
-3 9 -12 21 -19 l20 -13 -22 -18 c-22 -18 -22 -18 39 -25 58 -7 75 -17 52 -31
-6 -3 -10 -11 -10 -16 0 -5 17 2 37 16 43 29 55 31 47 10 -8 -21 3 -19 34 6
l27 21 3 -27 c3 -26 4 -26 32 13 35 49 55 63 45 33 -9 -29 5 -26 32 7 16 19
25 23 31 15 5 -8 14 -3 27 18 11 16 26 27 33 24 6 -2 12 1 12 8 0 7 12 0 25
-16 13 -15 28 -26 34 -25 5 2 19 -8 31 -22 16 -17 21 -19 17 -8 -4 10 -4 18
-2 18 12 0 55 -24 55 -32 0 -4 4 -8 10 -8 5 0 6 8 3 18 -6 15 -5 16 13 2 10
-8 22 -19 26 -25 4 -6 8 -2 8 8 0 16 2 16 25 1 13 -8 28 -13 33 -10 4 3 31 -6
58 -19 59 -29 73 -31 50 -6 -15 17 -15 19 -1 25 9 3 32 6 51 6 39 0 44 12 12
28 l-23 11 25 1 c23 1 21 3 -14 21 -28 15 -35 24 -27 32 19 19 13 23 -25 19
-27 -3 -35 -1 -29 8 5 9 -5 10 -40 4 -36 -5 -46 -4 -40 5 5 9 -2 11 -30 7 -23
-4 -34 -2 -30 4 3 6 -5 10 -19 10 -14 0 -29 7 -34 16 -5 9 -12 15 -15 15 -37
-5 -47 9 -27 39 9 13 11 13 20 0 8 -12 10 -10 10 10 0 14 5 32 10 40 8 12 10
12 11 -5 0 -11 6 -2 13 20 10 35 13 37 20 20 8 -17 10 -14 18 20 4 22 11 57
14 77 5 29 15 43 41 59 33 21 36 21 69 5 19 -9 38 -24 41 -33 4 -10 37 -53 73
-95 67 -77 119 -169 140 -250 20 -71 24 -67 40 37 9 55 21 99 26 98 5 -1 17
-5 27 -8 27 -11 21 10 -30 108 -32 61 -68 110 -109 151 -40 40 -63 72 -67 93
-6 31 -4 33 98 103 l105 71 0 58 c0 43 5 62 18 74 10 10 23 17 28 17 5 1 19 9
32 19 l22 19 0 361 c0 282 3 361 13 361 18 1 80 57 83 76 2 11 -2 14 -14 9
-40 -17 -55 -18 -50 -4 3 8 20 15 44 15 63 2 72 4 50 13 -16 6 -14 10 18 39
40 35 45 44 19 36 -10 -3 0 10 22 30 24 21 34 36 25 36 -11 1 -8 6 9 20 18 15
19 20 7 20 -23 0 -20 13 10 41 l26 24 -29 5 c-15 4 -43 0 -60 -7 -27 -11 -33
-11 -33 0 0 29 62 54 72 28 2 -5 18 3 35 19 l33 29 -30 -6 c-38 -7 -39 8 -4
36 l27 21 -32 0 c-35 0 -38 8 -15 51 17 35 12 48 -11 29 -20 -17 -20 1 0 40 9
17 11 30 6 30 -14 0 -24 -19 -27 -49 -2 -14 -11 -32 -21 -39 -15 -11 -19 -10
-22 4 -2 10 5 24 15 31 9 7 19 27 21 45 2 18 7 47 12 65 10 37 5 42 -16 16
-12 -16 -13 -15 -7 12 3 17 8 39 11 50 6 20 5 20 -16 1 -24 -22 -27 -12 -12
41 12 43 2 49 -25 16 l-23 -28 5 60 c5 53 4 58 -9 43 -20 -25 -27 -22 -27 10
0 29 -19 71 -20 42 0 -9 -11 -1 -26 18 -15 19 -30 29 -33 24 -3 -6 -4 30 -3
79 4 93 -5 113 -26 55 -7 -19 -28 -54 -47 -79 l-35 -46 -44 29 c-45 31 -62 37
-51 20 9 -15 0 -12 -45 11 -22 12 -40 25 -40 30 0 5 -5 9 -10 9 -7 0 -7 -6 0
-20 16 -29 -5 -25 -29 6 l-21 27 -2 -24 c0 -13 0 -37 1 -53 3 -26 1 -28 -13
-17 -17 14 -23 66 -6 56 15 -10 12 3 -7 25 -10 11 -23 20 -30 20 -7 0 -18 10
-24 22 l-12 22 -9 -24 c-5 -13 -8 -31 -7 -39 4 -46 -19 -71 -64 -71 -30 1 -31
1 -13 15 11 8 30 15 43 15 20 0 22 2 12 19 -9 13 -9 26 -1 51 8 21 8 38 2 49
-8 14 -9 14 -10 -2 0 -10 -4 -15 -10 -12 -5 3 -10 15 -10 26 0 21 -16 26 -23
7 -3 -7 -8 2 -13 21 -6 29 -8 31 -17 15 -7 -13 -7 -19 1 -22 16 -5 15 -63 -2
-84 -9 -12 -26 -18 -52 -17 l-39 1 30 13 c16 7 34 11 40 9 13 -5 13 50 0 111
-8 37 -8 38 -17 15 -9 -24 -10 -24 -25 15 -32 86 -29 84 -42 38 l-12 -42 -46
24 c-25 14 -47 24 -49 23 -1 -2 8 -24 21 -50 l23 -48 -24 0 c-33 0 -30 -12 9
-31 18 -9 31 -23 29 -31 -1 -10 9 -18 30 -22 31 -7 32 -8 14 -21 -19 -15 -19
-15 5 -15 13 0 31 -5 39 -10 12 -8 12 -10 -5 -11 -11 0 2 -7 30 -16 44 -13 48
-16 32 -28 -25 -18 -21 -21 19 -17 26 3 35 1 30 -7 -5 -7 7 -11 36 -11 l43 -1
-24 -19 -23 -20 47 0 c41 0 46 -2 35 -15 -15 -18 -14 -18 27 -6 27 8 31 7 26
-6 -5 -13 -1 -15 15 -11 12 4 22 3 22 -1 0 -4 25 -7 55 -6 30 1 55 -1 55 -4 0
-11 -105 -71 -169 -97 -33 -13 -84 -29 -113 -35 -69 -13 -200 -13 -266 1 -43
10 -62 9 -109 -5 -77 -23 -236 -23 -323 0 -94 24 -211 82 -204 100 7 17 5 17
132 23 19 1 31 6 27 12 -3 6 4 10 17 10 13 0 28 4 33 9 6 5 26 14 45 19 19 6
27 11 18 11 -27 1 -21 18 10 27 39 11 41 11 50 13 4 1 0 6 -8 11 -12 7 -7 12
20 24 25 11 29 16 15 16 -17 1 -17 3 5 12 14 5 33 14 42 19 10 5 26 9 35 10
15 0 15 2 -2 8 -17 7 -14 11 24 28 26 12 38 22 30 25 -9 3 -3 12 20 26 27 16
30 21 15 24 -15 2 -12 8 16 25 34 22 34 23 9 23 -23 0 -26 3 -22 28 3 15 9 37
15 49 17 34 7 35 -26 2z m4 -49 c0 -4 -7 -14 -16 -21 -15 -12 -16 -11 -9 11 7
24 7 24 -9 5 -13 -17 -15 -18 -16 -3 0 9 6 18 13 21 15 5 37 -2 37 -13z m240
-48 c0 -21 -2 -22 -15 -12 -8 7 -15 27 -15 44 1 29 1 30 15 12 8 -11 15 -31
15 -44z m-66 12 c4 -11 1 -14 -11 -12 -10 2 -19 11 -21 21 -4 21 24 13 32 -9z
m-284 -27 c0 -24 -25 -66 -33 -57 -5 5 22 80 29 80 2 0 4 -10 4 -23z m107 8
c-4 -13 -57 -20 -57 -7 0 15 12 22 37 20 13 -1 22 -7 20 -13z m283 -25 c0 -10
-4 -21 -9 -24 -12 -8 -22 20 -15 39 8 19 24 9 24 -15z m-59 -6 c9 -11 6 -14
-15 -14 -15 0 -37 5 -49 12 -21 11 -21 11 -2 18 24 9 51 2 66 -16z m-381 -23
c0 -10 -8 -29 -19 -42 l-19 -23 3 27 c3 25 21 57 31 57 2 0 4 -9 4 -19z m126
10 c-7 -10 -66 -20 -66 -11 0 13 14 20 42 20 16 0 27 -4 24 -9z m278 -17 c22
-8 10 -24 -19 -24 -29 0 -42 17 -18 23 10 3 19 5 20 6 1 0 8 -2 17 -5z m116
-41 c0 -13 -4 -23 -10 -23 -5 0 -10 17 -10 38 0 27 3 33 10 22 5 -8 10 -25 10
-37z m-444 12 c-11 -8 -29 -15 -39 -15 -16 0 -17 3 -7 15 7 8 24 15 39 15 25
-1 25 -1 7 -15z m-140 -43 c-20 -20 -22 -1 -4 31 11 20 12 21 16 3 2 -10 -3
-26 -12 -34z m83 9 c12 -8 10 -12 -12 -22 -31 -14 -45 -6 -27 16 14 17 20 18
39 6z m-131 -42 c-18 -12 -23 8 -6 28 12 15 13 15 16 -2 2 -10 -2 -21 -10 -26z
m742 -13 c-1 -21 -1 -21 -15 -2 -8 11 -15 29 -15 40 1 21 1 21 15 2 8 -11 15
-29 15 -40z m-120 35 c0 -5 -5 -11 -12 -13 -19 -7 -58 3 -52 13 7 12 64 12 64
0z m-662 -47 c-16 -34 -38 -43 -38 -15 0 18 38 56 48 47 2 -3 -2 -17 -10 -32z
m892 -27 c0 -19 -1 -20 -20 -2 -11 10 -20 30 -20 44 l1 26 19 -24 c11 -13 20
-32 20 -44z m270 -1605 l-5 -122 -30 -20 c-16 -11 -33 -20 -37 -20 -5 0 -8
363 -8 806 l0 806 -57 -52 c-146 -130 -372 -187 -577 -144 -71 14 -80 14 -124
-1 -72 -26 -252 -32 -346 -10 -97 21 -225 85 -280 139 l-43 41 5 -804 5 -805
-34 22 -34 21 -6 238 c-4 131 -7 530 -8 887 l-1 650 25 -35 c70 -95 207 -190
340 -235 69 -23 97 -27 200 -28 83 0 139 5 180 17 50 13 68 14 100 5 55 -16
228 -16 295 1 30 7 96 32 145 56 98 47 201 133 258 214 l32 46 5 -775 c3 -426
3 -830 0 -898z m-1055 1638 c-3 -5 -18 -10 -33 -10 -21 0 -24 2 -12 10 20 13
53 13 45 0z m845 -51 c0 -15 -36 7 -44 27 -13 33 -4 38 19 11 14 -15 25 -33
25 -38z m-1004 34 c-2 -9 -12 -23 -24 -31 -19 -12 -20 -12 -15 10 9 35 44 54
39 21z m814 -4 c0 -5 -17 -9 -37 -9 -34 1 -36 2 -20 14 18 14 57 11 57 -5z
m-860 -4 c0 -8 -10 -19 -21 -26 -22 -11 -21 -3 4 29 12 16 17 15 17 -3z m1081
-14 c11 -27 -6 -19 -22 11 -8 16 -8 19 2 16 6 -2 16 -14 20 -27z m62 -24 c-4
-6 -14 -1 -25 12 -26 34 -22 48 7 21 13 -12 22 -27 18 -33z m-1310 12 c-6 -20
-48 -47 -58 -37 -11 11 7 35 33 45 15 6 28 11 29 12 0 1 -1 -8 -4 -20z m337
11 c0 -5 -16 -10 -35 -10 -19 0 -35 5 -35 10 0 6 16 10 35 10 19 0 35 -4 35
-10z m740 -6 c0 -16 -28 -26 -53 -18 -20 6 -20 7 -3 20 22 15 56 14 56 -2z
m-1020 -3 c0 -12 -21 -27 -48 -36 -23 -7 -23 -7 -7 19 16 24 55 37 55 17z
m209 -14 c6 -8 8 -16 5 -19 -9 -9 -57 7 -62 20 -5 17 43 15 57 -1z m847 -9
c-9 -5 -24 -7 -34 -5 -14 3 -12 6 8 14 29 12 50 5 26 -9z m64 4 c0 -15 -24
-32 -44 -32 -20 1 -20 1 3 20 24 21 41 26 41 12z m-970 -17 c7 -9 11 -18 8
-21 -7 -7 -58 17 -58 28 0 14 37 9 50 -7z m1020 1 c-8 -8 -26 -17 -40 -20
l-25 -7 24 20 c27 25 66 31 41 7z m-1076 -15 c25 -27 3 -36 -34 -15 -21 13
-26 20 -17 26 19 12 33 9 51 -11z m1126 4 c-7 -8 -22 -15 -34 -15 -21 1 -21 1
-2 15 27 21 53 20 36 0z m200 -20 c0 -13 -4 -26 -9 -29 -11 -7 -22 31 -14 50
8 20 23 7 23 -21z m-1401 6 c11 -7 9 -10 -8 -16 -12 -4 -30 0 -43 9 l-22 16
29 0 c17 0 36 -4 44 -9z m-289 -47 c0 -40 -2 -45 -15 -34 -10 8 -13 21 -9 39
14 57 24 55 24 -5z m215 36 c3 -5 -1 -10 -9 -10 -8 0 -18 5 -21 10 -3 6 1 10
9 10 8 0 18 -4 21 -10z m1513 -32 c-3 -34 -22 -48 -32 -23 -6 16 13 55 27 55
5 0 7 -14 5 -32z m-40 -44 c-10 -10 -28 6 -28 24 0 15 1 15 17 -1 9 -9 14 -19
11 -23z m68 -40 c-3 -9 -10 -12 -16 -9 -14 9 -13 43 3 59 10 12 13 10 15 -11
2 -14 1 -31 -2 -39z m-1783 33 c2 -7 0 -23 -5 -37 -7 -20 -11 -22 -18 -10 -16
24 -12 70 4 64 8 -3 16 -11 19 -17z m67 8 c0 -8 -7 -15 -15 -15 -16 0 -20 12
-8 23 11 12 23 8 23 -8z m1661 -25 c10 -6 19 -18 19 -27 0 -14 -2 -14 -25 1
-28 19 -32 7 -9 -28 9 -15 11 -26 5 -30 -6 -4 -2 -21 12 -43 15 -27 18 -38 9
-41 -10 -3 -10 -7 -2 -17 7 -8 13 -24 15 -37 1 -13 6 -32 11 -42 5 -15 4 -17
-6 -11 -10 6 -11 3 -6 -16 10 -33 13 -169 4 -169 -5 0 -8 -16 -8 -36 0 -28 -3
-35 -15 -30 -13 5 -15 0 -9 -29 4 -23 2 -35 -5 -35 -6 0 -11 -9 -11 -19 0 -11
-5 -23 -10 -26 -7 -4 -10 99 -10 319 1 213 5 326 11 326 6 0 19 -5 30 -10z
m-1675 -15 c-26 -19 -47 -19 -40 0 4 8 18 15 33 15 25 -1 25 -1 7 -15z m-86
-29 c5 -13 6 -34 3 -46 -5 -20 -4 -21 15 -9 27 17 43 2 18 -17 -11 -8 -23 -14
-26 -14 -11 0 -33 52 -35 83 -2 33 12 35 25 3z m1849 -32 c-14 -27 -29 -23
-29 8 0 27 33 54 38 31 2 -9 -2 -26 -9 -39z m-250 -791 c2 -680 0 -841 -11
-854 -7 -9 -55 -45 -105 -78 l-93 -62 -30 22 c-16 13 -30 26 -30 30 0 3 43 35
96 70 l96 63 -3 616 c-2 338 -6 641 -7 673 l-4 57 -605 -2 -606 -2 6 -305 c4
-169 7 -475 7 -682 l0 -376 69 -44 c38 -24 84 -52 102 -63 l34 -18 -33 -28
-34 -28 -96 60 c-53 33 -104 69 -114 79 -15 17 -16 76 -17 642 -1 342 -4 715
-7 830 -4 114 -4 207 0 207 4 0 28 -14 52 -31 78 -53 187 -98 279 -114 115
-20 151 -19 265 6 106 23 111 24 160 14 138 -27 256 -24 363 9 75 24 172 73
217 111 23 19 43 35 44 35 1 0 4 -377 5 -837z m-1497 561 c3 -247 2 -263 -16
-274 -17 -11 -18 -9 -14 19 2 17 0 31 -5 31 -5 0 -7 12 -4 26 3 19 1 24 -11
19 -12 -4 -11 -1 3 21 16 25 16 26 -4 19 -17 -5 -20 -3 -14 12 3 10 10 24 16
31 7 8 5 12 -7 12 -20 0 -20 10 -1 36 19 25 19 38 0 30 -9 -3 -15 0 -15 9 0 8
4 15 9 15 5 0 9 10 8 23 0 12 3 30 8 40 6 14 4 16 -11 10 -16 -6 -16 -3 4 31
12 21 20 41 17 46 -3 5 0 12 6 15 5 4 8 14 4 23 -3 8 -1 18 5 22 6 4 8 14 4
23 -5 15 -8 15 -30 0 -28 -18 -38 -14 -28 11 4 11 16 16 40 14 l33 -2 3 -262z
m1695 244 c19 -25 23 -47 7 -41 -13 5 -34 34 -34 47 0 11 17 6 27 -6z m-1817
-58 c5 -36 0 -42 -19 -19 -21 26 -17 70 5 47 7 -7 13 -20 14 -28z m1910 36 c0
-20 -25 -66 -36 -66 -20 0 -17 30 4 51 16 16 32 24 32 15z m-67 -66 c15 -25
16 -30 4 -30 -8 0 -20 14 -26 30 -5 17 -7 30 -3 30 4 0 16 -13 25 -30z m-1783
6 c0 -3 -13 -14 -30 -26 -31 -22 -41 -13 -14 14 14 15 44 22 44 12z m1855 -28
c-3 -18 -12 -39 -19 -46 -24 -24 -26 23 -3 52 27 33 28 33 22 -6z m-1935 3 c5
-11 7 -27 4 -36 -6 -14 -8 -14 -19 2 -6 10 -15 26 -18 36 -9 24 19 22 33 -2z
m61 -43 c-4 -12 -17 -25 -29 -29 -18 -7 -22 -5 -22 11 0 19 24 39 47 40 8 0
10 -7 4 -22z m1810 12 c20 -11 27 -44 7 -38 -13 5 -44 48 -34 48 4 0 16 -5 27
-10z m-1891 -32 c20 -22 27 -58 11 -58 -5 0 -16 15 -25 34 -25 52 -20 60 14
24z m90 -26 c0 -24 -52 -59 -58 -39 -5 19 0 28 21 37 29 11 37 12 37 2z m1824
-25 c15 -24 -3 -35 -20 -13 -8 11 -14 24 -14 29 0 13 22 3 34 -16z m-1913 -21
c17 -20 26 -23 45 -16 29 11 32 -4 8 -38 -19 -27 -34 -28 -34 -2 0 11 -4 20
-10 20 -13 0 -50 37 -50 50 0 18 19 11 41 -14z m1979 -6 c-15 -27 -50 -46 -50
-26 0 19 27 46 46 46 12 0 12 -4 4 -20z m-60 -64 c0 -28 -17 -8 -25 29 -6 29
-6 29 9 11 9 -11 16 -29 16 -40z m-1920 20 c0 -2 3 -11 6 -19 4 -12 0 -14 -15
-10 -27 7 -36 33 -11 33 11 0 20 -2 20 -4z m1550 -62 l0 -54 -47 -2 -48 -1 40
-6 c37 -5 35 -6 -25 -11 l-65 -7 71 -1 71 -2 6 -137 c4 -75 7 -192 7 -260 0
-115 -1 -123 -19 -123 -11 0 -28 -3 -38 -7 -15 -5 -15 -2 5 19 30 33 29 78 -3
108 -31 29 -33 60 -5 60 11 0 20 5 20 11 0 6 -9 8 -20 4 -18 -6 -20 -2 -20 34
0 23 -4 41 -10 41 -6 0 -10 -30 -10 -70 0 -53 -3 -70 -14 -70 -7 0 -19 -7 -26
-15 -17 -20 -24 -19 -57 10 l-28 25 37 35 38 35 -39 0 c-33 0 -40 4 -44 23
l-4 22 -8 -22 c-7 -22 -37 -39 -53 -29 -4 2 -14 0 -22 -5 -10 -7 6 -9 53 -7
37 2 67 0 67 -3 0 -7 -85 -69 -117 -86 -23 -12 -23 -11 -24 58 -1 38 -2 75 -3
82 -1 8 -21 12 -61 13 l-60 1 55 -7 c40 -5 47 -8 25 -10 -29 -3 -30 -3 -4 -7
26 -4 27 -7 31 -76 3 -40 4 -150 4 -246 -1 -137 -4 -175 -14 -179 -11 -3 -12
0 -2 19 9 15 11 50 6 113 -3 50 -7 148 -7 219 l-1 127 -206 -2 -207 -3 1 -30
c1 -16 2 -121 3 -232 l1 -201 52 -49 c28 -26 74 -70 102 -96 l50 -48 93 93
c51 50 96 89 100 85 8 -9 -176 -197 -192 -197 -5 1 -58 47 -117 103 l-107 102
-6 246 c-4 144 -3 249 2 252 5 3 78 9 163 12 85 3 156 8 159 11 2 2 -15 4 -38
4 l-41 0 2 128 3 127 45 11 c38 9 16 11 -132 10 -98 -1 -178 -4 -178 -8 0 -5
49 -8 109 -8 l109 0 5 -37 c4 -31 3 -185 -2 -215 0 -4 -49 -9 -108 -10 l-108
-3 -3 -137 -3 -138 -173 0 -173 0 -6 152 c-4 83 -7 204 -7 270 l0 118 175 0
c96 0 175 3 175 8 0 4 -78 7 -172 7 l-173 0 -3 57 -3 58 458 2 c252 2 515 2
586 0 l127 -3 0 -55z m427 31 c-31 -28 -47 -32 -47 -12 0 21 22 37 50 37 l25
-1 -28 -24z m-1897 7 c0 -13 -30 -52 -41 -52 -14 0 -11 22 8 42 17 19 33 24
33 10z m1830 -50 c0 -33 -16 -18 -26 23 -7 27 -6 29 9 16 10 -7 17 -25 17 -39z
m-1896 12 c9 -23 7 -44 -3 -44 -15 0 -41 30 -41 46 0 19 36 18 44 -2z m66 -21
c0 -5 -9 -19 -19 -32 -17 -22 -18 -22 -25 -5 -5 12 -1 23 10 31 20 15 34 17
34 6z m1820 -55 c0 -25 -3 -28 -14 -19 -7 6 -11 22 -8 36 6 33 22 21 22 -17z
m-1878 5 c19 -17 24 -43 9 -43 -6 0 -17 10 -25 22 -27 38 -17 51 16 21z m68
-4 c0 -17 -20 -49 -30 -49 -14 0 -12 34 2 48 15 15 28 15 28 1z m897 -186 c-2
-37 -3 -9 -3 62 0 72 1 102 3 68 2 -34 2 -93 0 -130z m989 168 c-18 -20 -64
-36 -74 -27 -12 13 33 46 61 46 29 0 29 -1 13 -19z m-96 -20 c11 -21 3 -54
-11 -45 -9 5 -13 64 -4 64 2 0 9 -9 15 -19z m-1793 -48 c-12 -13 -15 -13 -20
1 -3 8 2 23 11 32 16 17 17 17 20 0 2 -10 -3 -25 -11 -33z m-49 18 c24 -21 28
-31 10 -31 -14 0 -48 30 -48 42 0 13 13 9 38 -11z m1913 -1 c-26 -22 -55 -27
-49 -7 4 10 27 18 68 25 3 1 -6 -8 -19 -18z m-97 -63 c-7 -21 -7 -21 -14 -2
-4 11 -5 28 -2 38 4 17 6 18 14 3 5 -9 6 -26 2 -39z m-1740 -9 c-6 -21 -7 -21
-20 -3 -10 13 -11 23 -2 38 9 18 11 19 20 3 5 -9 6 -26 2 -38z m53 20 c-3 -7
-5 -2 -5 12 0 14 2 19 5 13 2 -7 2 -19 0 -25z m-93 -10 c9 -12 14 -24 11 -26
-7 -7 -55 27 -55 38 0 18 29 10 44 -12z m1847 2 c-27 -23 -51 -26 -51 -7 0 21
11 27 44 27 l31 -1 -24 -19z m-91 -43 c0 -12 -4 -28 -9 -35 -12 -19 -21 6 -14
41 6 31 23 26 23 -6z m-1680 -2 c0 -15 -18 -30 -27 -22 -2 3 -2 15 2 26 7 23
25 19 25 -4z m-50 -15 c8 -16 8 -20 -3 -20 -8 0 -22 9 -32 20 -18 19 -17 20 3
20 12 0 26 -9 32 -20z m1816 11 c-8 -13 -66 -35 -73 -28 -12 13 20 37 49 37
16 0 27 -4 24 -9z m-1746 -42 c0 -11 -4 -17 -10 -14 -5 3 -10 13 -10 21 0 8 5
14 10 14 6 0 10 -9 10 -21z m1617 -16 c-3 -10 -5 -4 -5 12 0 17 2 24 5 18 2
-7 2 -21 0 -30z m-1647 -13 c0 -15 -36 -12 -49 4 -9 11 -9 15 1 19 16 5 48
-10 48 -23z m1687 -40 c-30 -23 -47 -26 -47 -6 0 16 15 24 49 25 l24 1 -26
-20z m-1668 1 c7 -5 10 -14 7 -20 -8 -13 -46 3 -46 19 0 12 20 13 39 1z m674
-76 c-24 -51 -43 -53 -43 -5 0 38 2 40 30 40 l30 0 -17 -35z m217 19 c0 -8 6
-11 15 -8 8 4 17 -1 21 -10 3 -9 12 -16 20 -16 8 0 14 -6 14 -14 0 -7 7 -19
15 -26 20 -17 19 -47 -2 -59 -10 -6 -13 -11 -8 -11 6 0 16 5 22 11 15 15 33 2
33 -24 0 -23 -34 -52 -50 -42 -5 3 -12 1 -15 -5 -4 -7 -16 -1 -30 15 -13 14
-31 25 -40 25 -9 0 -14 3 -12 8 3 4 -7 16 -21 26 -14 11 -22 14 -18 7 5 -7 0
-18 -10 -27 -18 -14 -18 -14 3 -5 26 13 33 14 33 2 0 -5 -17 -12 -37 -16 -21
-3 -48 -9 -61 -12 -17 -4 -21 -2 -16 10 3 9 15 18 27 20 18 3 17 5 -5 6 -26 1
-31 -6 -27 -35 2 -13 -21 -20 -60 -19 -32 1 -38 -2 -30 -12 8 -9 16 -10 31 -2
30 16 34 2 7 -22 -13 -11 -25 -16 -27 -10 -2 5 -10 7 -19 4 -14 -6 -15 1 -10
48 10 81 30 139 49 139 4 0 8 5 8 11 0 16 29 41 40 34 5 -3 15 -3 21 1 8 5 8
8 0 14 -7 4 22 7 63 8 58 0 76 -3 76 -14z m121 6 c5 -35 3 -73 -3 -76 -4 -3
-15 8 -24 23 -10 15 -27 36 -38 45 -21 17 -20 18 22 18 23 0 43 -4 43 -10z
m193 -89 c10 -11 23 -18 29 -14 6 4 8 0 4 -11 -8 -19 8 -55 32 -73 13 -10 -5
-12 -90 -13 -102 0 -107 1 -113 23 -13 48 -6 62 42 94 50 33 62 32 96 -6z
m138 2 c23 -21 23 -55 -1 -77 -20 -18 -51 -15 -78 6 -20 16 -15 55 9 72 29 20
47 20 70 -1z m-552 -135 c0 12 5 22 10 22 6 0 10 -10 10 -22 0 -21 1 -21 20
-3 18 17 70 30 70 19 0 -3 -11 -15 -25 -27 -37 -33 -45 -121 -15 -159 12 -16
31 -28 45 -28 12 0 29 -8 36 -17 12 -15 12 -16 -3 -10 -20 7 -21 6 -12 -18 5
-13 9 -14 15 -4 4 8 11 10 15 6 5 -4 -23 -39 -62 -78 l-70 -70 -77 72 c-73 67
-90 89 -67 89 5 0 28 12 49 28 36 24 40 31 41 72 1 25 6 54 11 65 8 17 9 16 6
-7 -3 -17 0 -25 6 -21 6 4 7 -5 3 -23 -5 -21 -4 -25 4 -14 8 12 10 9 10 -13 0
-16 4 -26 9 -22 6 3 6 17 0 35 -10 27 -5 46 29 115 3 6 -4 2 -15 -7 -11 -10
-29 -18 -40 -18 -23 0 -47 23 -36 34 4 4 -1 4 -12 0 -17 -7 -18 -6 -5 8 14 15
16 15 32 -5 l18 -22 0 23z m-292 5 c-49 -2 -127 -2 -175 0 -49 1 -9 3 87 3 96
0 136 -2 88 -3z m825 0 c-45 -2 -122 -2 -170 0 -48 1 -11 3 82 3 94 0 133 -2
88 -3z m-303 -103 c0 -117 -4 -122 -78 -95 -70 26 -82 40 -82 97 0 57 26 92
63 83 12 -3 36 -1 52 4 17 5 33 10 38 10 4 1 7 -44 7 -99z m-439 13 c1 -43 2
-92 3 -108 1 -25 21 -50 114 -140 l113 -109 -3 -95 -3 -96 -64 -8 c-75 -9
-181 -45 -257 -86 l-55 -30 -99 62 -99 62 -1 313 0 312 175 0 175 0 1 -77z
m815 65 c4 -6 9 -141 11 -299 l4 -287 -68 -48 c-37 -26 -83 -57 -100 -70 l-33
-22 -54 29 c-72 39 -152 66 -223 74 -76 10 -91 13 -103 20 -6 3 -10 44 -10 91
0 55 4 83 10 79 6 -4 8 -10 5 -15 -3 -5 -1 -11 4 -15 6 -3 8 4 6 16 -4 20 21
49 211 246 7 8 9 45 6 112 l-5 101 166 0 c117 0 168 -3 173 -12z m-641 -15
c17 -40 -4 -132 -33 -148 -58 -31 -72 -38 -76 -34 -2 2 -6 41 -9 85 l-5 82 34
-1 c20 -1 41 6 51 16 22 21 29 21 38 0z m174 -624 c87 -13 213 -58 253 -91 15
-13 48 -38 73 -57 l45 -33 0 -84 c0 -46 -2 -84 -5 -84 -3 0 -25 16 -51 35
-236 181 -597 177 -836 -8 -21 -15 -42 -26 -48 -22 -5 3 -10 41 -10 84 0 86 0
86 90 147 110 76 216 110 379 122 19 2 69 -2 110 -9z m58 -216 c19 -7 12 -14
-69 -68 l-90 -59 -42 24 c-74 42 -148 92 -144 96 22 21 294 27 345 7z m111
-34 c12 -5 22 -10 22 -12 0 -2 -65 -47 -144 -101 l-144 -98 -62 38 c-34 22
-99 62 -145 89 -46 28 -87 54 -91 58 -4 4 10 14 31 23 46 19 52 17 170 -62
l84 -56 108 71 c109 70 113 72 171 50z m-758 -79 c0 -38 2 -70 4 -70 2 0 20
16 41 35 56 53 52 36 -6 -26 -51 -54 -135 -184 -145 -226 -11 -42 -20 -23 -22
49 -3 84 -7 92 -33 78 -26 -14 -24 -8 13 63 32 59 121 167 139 167 5 0 9 -31
9 -70z m1049 14 c27 -32 67 -88 87 -127 33 -64 35 -70 16 -65 -18 5 -22 0 -31
-46 -6 -28 -11 -62 -13 -76 -2 -21 -6 -16 -22 25 -10 28 -39 82 -65 120 -46
70 -46 71 -43 148 2 42 7 77 12 77 4 0 31 -25 59 -56z m-808 -71 c-9 -16 -10
-16 -11 4 0 12 3 30 7 40 7 16 8 16 11 -4 2 -12 -1 -30 -7 -40z m474 25 c-4
-13 -9 -31 -12 -42 -4 -14 -7 -15 -13 -6 -5 7 -6 19 -4 27 2 7 6 20 9 28 7 25
27 18 20 -7z m235 -13 c25 -30 3 -25 -26 6 -22 24 -24 29 -8 21 11 -6 27 -18
34 -27z m-640 -1 c0 -13 -32 -64 -40 -64 -11 0 -13 49 -4 74 5 12 10 13 25 5
10 -5 19 -12 19 -15z m45 -24 c3 -6 -1 -7 -9 -4 -18 7 -21 14 -7 14 6 0 13 -4
16 -10z m285 0 c0 -5 -8 -10 -17 -10 -15 0 -16 2 -3 10 19 12 20 12 20 0z m33
-42 c-8 -27 -12 -30 -18 -15 -11 25 3 73 17 59 8 -8 8 -21 1 -44z m-347 -30
l-14 -33 -1 41 c-1 45 8 63 21 40 5 -9 3 -28 -6 -48z m80 27 c17 -13 17 -14 2
-15 -9 0 -20 5 -23 10 -12 19 -25 10 -25 -17 0 -16 -5 -35 -10 -43 -14 -21
-13 35 0 61 13 23 29 24 56 4z m204 4 c0 -10 -9 -15 -45 -23 l-30 -6 22 18
c21 19 53 25 53 11z m22 -49 c-7 -19 -10 -21 -15 -7 -8 22 3 51 15 39 5 -5 5
-19 0 -32z m-182 0 c26 -16 3 -22 -27 -6 -23 13 -24 15 -8 15 11 1 27 -3 35
-9z m120 0 c0 -11 -48 -25 -57 -16 -3 3 5 10 18 15 32 13 39 13 39 1z m-180
-24 c0 -24 -23 -56 -41 -56 -5 0 -9 5 -9 11 0 5 4 8 9 5 5 -3 12 10 15 29 8
40 26 47 26 11z m216 -12 c-4 -12 -10 -14 -17 -7 -5 5 -7 17 -3 27 4 12 10 14
17 7 5 -5 7 -17 3 -27z m-186 -25 c0 -24 -4 -38 -10 -34 -17 10 -11 75 7 75 2
0 3 -18 3 -41z m85 21 c-3 -5 -15 -10 -25 -10 -10 0 -22 5 -25 10 -4 6 7 10
25 10 18 0 29 -4 25 -10z m-38 -51 c-3 -10 0 -20 5 -21 6 -2 9 -13 6 -23 -3
-17 -7 -14 -21 14 -9 19 -17 43 -17 54 0 17 2 18 16 6 8 -7 13 -21 11 -30z
m83 20 c0 -10 -59 -8 -66 2 -3 5 11 8 31 7 19 -1 35 -5 35 -9z m44 -24 c19
-14 18 -15 -11 -15 -33 0 -52 15 -31 23 19 8 21 8 42 -8z m-64 -65 c0 -38 -20
-10 -26 36 -5 39 -5 39 10 14 8 -14 15 -36 16 -50z m-126 44 c4 -9 4 -19 2
-21 -8 -8 -26 8 -26 23 0 19 16 18 24 -2z m256 -13 c0 -5 -6 -11 -14 -14 -19
-8 -57 3 -50 14 7 12 64 12 64 0z m-82 -47 c2 -37 1 -38 -13 -20 -18 24 -20
69 -2 64 6 -3 13 -22 15 -44z m-287 16 c18 -15 20 -19 8 -20 -9 0 -24 9 -34
20 -23 26 -4 26 26 0z m168 -16 c-16 -19 -29 -17 -29 4 0 26 11 34 27 21 10
-9 10 -15 2 -25z m261 21 c-14 -16 -60 -21 -60 -6 0 6 15 12 33 14 17 2 34 5
36 5 2 1 -2 -5 -9 -13z m-485 -25 c10 -11 15 -23 12 -27 -8 -7 -47 25 -47 39
0 14 16 9 35 -12z m185 14 c0 -4 -10 -23 -22 -43 -21 -32 -23 -34 -26 -14 -4
28 14 63 33 63 8 0 15 -3 15 -6z m208 -6 c7 -7 12 -20 12 -30 0 -16 -3 -17
-20 -8 -11 6 -20 20 -20 30 0 23 10 26 28 8z m160 -4 c-11 -11 -25 -15 -43
-10 -36 9 -22 26 23 26 34 0 35 -1 20 -16z m62 -9 c-7 -8 -24 -15 -38 -15 -40
0 -8 22 42 29 5 0 3 -6 -4 -14z m-651 -14 c9 -16 8 -18 -9 -14 -11 3 -25 11
-31 19 -9 11 -7 14 9 14 12 0 26 -9 31 -19z m491 5 c8 -10 8 -21 2 -32 -8 -15
-11 -14 -26 7 -9 13 -16 27 -16 31 0 13 27 9 40 -6z m-362 -45 c-13 -17 -26
-30 -30 -30 -13 -1 12 53 30 67 26 20 27 -4 0 -37z m556 43 c27 -10 18 -24
-16 -25 l-33 -1 34 -12 c23 -8 30 -14 20 -18 -17 -7 -59 8 -59 21 0 9 27 41
35 41 2 0 10 -3 19 -6z m-756 -13 c10 -6 8 -10 -8 -14 -26 -7 -52 1 -44 14 7
11 35 11 52 0z m622 -17 c6 -14 10 -28 10 -31 0 -9 -31 19 -41 39 -7 14 -6 18
6 18 8 0 20 -12 25 -26z m-460 10 c0 -14 -22 -44 -39 -54 -17 -8 -18 -7 -14
13 3 12 10 28 16 35 9 12 37 17 37 6z m534 -34 l20 -35 -24 16 c-13 8 -30 26
-39 38 -14 22 -14 23 4 20 10 -2 28 -20 39 -39z m-667 6 c-2 -6 -21 -12 -43
-14 -25 -2 -35 0 -29 6 19 18 77 25 72 8z m48 -13 c-18 -16 -31 -21 -33 -14
-5 14 26 40 48 40 10 0 4 -9 -15 -26z"/>
<path d="M651 2298 c-20 -47 -20 -50 -3 -33 11 11 17 25 15 31 -2 7 0 15 6 19
6 3 12 1 12 -4 4 -29 19 -61 30 -61 9 0 -17 77 -31 93 -4 4 -17 -16 -29 -45z"/>
<path d="M1197 2338 c-19 -50 -19 -54 -2 -37 9 9 15 25 13 35 -5 18 -5 18 -11
2z"/>
<path d="M1585 2300 c0 -65 12 -65 17 0 2 29 -1 50 -7 50 -5 0 -10 -22 -10
-50z"/>
<path d="M1625 2325 c0 -26 9 -32 21 -14 3 6 0 17 -7 25 -12 11 -14 9 -14 -11z"/>
<path d="M1100 2327 c0 -8 6 -20 14 -26 12 -10 13 -8 9 9 -7 25 -23 37 -23 17z"/>
<path d="M1145 2290 c0 -27 5 -50 10 -50 9 0 10 16 6 80 -2 42 -16 17 -16 -30z"/>
<path d="M661 2154 c-14 -32 -14 -35 3 -28 8 3 17 1 21 -5 14 -23 23 -9 13 19
-14 41 -23 44 -37 14z"/>
<path d="M722 2145 c-2 -19 2 -35 8 -35 5 0 10 16 10 35 0 19 -4 35 -8 35 -4
0 -9 -16 -10 -35z"/>
<path d="M813 2145 c0 -39 13 -47 20 -12 l4 22 2 -22 c1 -27 21 -31 21 -5 0
14 -31 52 -43 52 -2 0 -4 -16 -4 -35z"/>
<path d="M1100 2145 c0 -19 5 -35 10 -35 6 0 10 5 10 11 0 7 7 17 17 24 19 14
9 35 -18 35 -15 0 -19 -7 -19 -35z"/>
<path d="M1430 2140 c0 -16 5 -30 10 -30 6 0 10 5 10 12 0 9 3 9 12 0 16 -16
31 -15 21 1 -4 6 -6 20 -5 30 2 9 -1 17 -7 17 -5 0 -12 -8 -14 -17 -4 -17 -5
-17 -6 0 -2 30 -21 18 -21 -13z"/>
<path d="M1500 2140 c0 -16 5 -30 10 -30 6 0 10 14 10 30 0 17 -4 30 -10 30
-5 0 -10 -13 -10 -30z"/>
<path d="M757 2153 c-11 -10 -8 -63 3 -63 6 0 10 14 10 30 0 17 5 30 11 30 6
0 9 -9 6 -20 -3 -11 -1 -18 4 -14 17 10 10 44 -9 44 -10 0 -22 -3 -25 -7z"/>
<path d="M875 2151 c-3 -6 0 -9 8 -5 8 3 14 -2 14 -11 0 -9 -6 -14 -14 -11 -7
3 -13 1 -13 -4 0 -6 9 -10 21 -10 15 0 20 5 17 22 -3 24 -23 35 -33 19z"/>
<path d="M1169 2158 c-8 -16 -3 -45 7 -45 17 0 18 13 3 23 -8 4 -7 9 2 15 10
6 11 9 2 9 -7 0 -14 -1 -14 -2z"/>
<path d="M1200 2135 c0 -14 5 -25 10 -25 6 0 10 11 10 25 0 14 -4 25 -10 25
-5 0 -10 -11 -10 -25z"/>
<path d="M1530 2132 c0 -12 4 -22 9 -22 10 0 9 26 -2 36 -4 4 -7 -2 -7 -14z"/>
<path d="M1560 2131 c0 -11 3 -22 8 -24 4 -3 7 6 7 19 0 13 -3 24 -7 24 -5 0
-8 -9 -8 -19z"/>
<path d="M1592 2130 c0 -14 2 -19 5 -12 2 6 2 18 0 25 -3 6 -5 1 -5 -13z"/>
<path d="M1300 2079 c0 -5 5 -7 10 -4 6 3 10 8 10 11 0 2 -4 4 -10 4 -5 0 -10
-5 -10 -11z"/>
<path d="M1365 2080 c-3 -5 1 -10 9 -10 9 0 16 5 16 10 0 6 -4 10 -9 10 -6 0
-13 -4 -16 -10z"/>
<path d="M1433 2078 c-12 -4 -6 -7 17 -7 19 0 44 4 55 9 15 6 11 8 -17 7 -21
-1 -46 -5 -55 -9z"/>
<path d="M1407 2020 c-6 -24 -57 -29 -57 -5 0 8 -4 15 -10 15 -5 0 -10 -9 -10
-20 0 -15 -7 -20 -25 -20 -14 0 -28 7 -31 15 -11 29 -24 15 -24 -27 0 -25 -7
-49 -17 -61 -18 -19 -17 -19 17 -13 19 4 42 10 52 12 9 3 19 0 23 -6 13 -22
25 -8 25 29 0 33 3 39 25 43 33 7 35 3 35 -59 0 -29 5 -53 10 -53 12 0 14 157
1 164 -5 3 -11 -3 -14 -14z m-82 -65 c0 -15 -8 -21 -29 -23 -23 -3 -28 0 -22
13 3 9 6 21 6 27 0 5 10 8 23 6 14 -2 22 -10 22 -23z"/>
<path d="M684 2005 c-7 -17 -79 -21 -89 -5 -13 22 -20 8 -20 -43 0 -51 1 -52
30 -52 25 0 35 8 62 50 18 28 43 53 56 57 20 5 20 6 -6 7 -16 1 -30 -5 -33
-14z m-24 -33 c0 -4 -12 -20 -26 -35 -25 -27 -50 -32 -48 -9 1 7 2 21 3 32 1
16 8 20 36 20 19 0 35 -3 35 -8z"/>
<path d="M761 2003 c0 -13 4 -23 10 -23 7 0 9 -9 5 -23 -3 -14 1 -31 10 -43
15 -18 15 -18 5 2 -14 30 9 58 64 79 38 15 48 16 62 4 17 -12 17 -12 1 6 -17
18 -20 18 -65 2 -61 -22 -80 -21 -86 1 -4 13 -5 11 -6 -5z"/>
<path d="M1030 2000 c-43 -24 -45 -24 -64 -4 -15 14 -16 14 -16 -1 0 -8 6 -18
13 -21 8 -3 12 -16 9 -33 -3 -19 1 -30 12 -34 13 -5 14 -3 4 13 -15 23 0 44
53 71 43 21 65 24 72 9 3 -6 4 -5 3 2 -4 20 -48 19 -86 -2z"/>
<path d="M1030 1880 c-13 -8 -12 -10 3 -10 9 0 17 5 17 10 0 12 -1 12 -20 0z"/>
<path d="M828 1873 c7 -3 16 -2 19 1 4 3 -2 6 -13 5 -11 0 -14 -3 -6 -6z"/>
<path d="M1266 1869 c3 -6 0 -15 -7 -20 -23 -14 -3 -21 33 -11 18 5 67 8 108
6 50 -2 68 0 55 6 -11 5 -53 9 -92 9 -42 1 -73 5 -73 11 0 6 -7 10 -16 10 -8
0 -12 -5 -8 -11z"/>
<path d="M670 1791 c-34 -19 -58 -17 -72 3 -5 7 -8 7 -8 -2 0 -7 11 -17 24
-23 18 -9 31 -7 64 10 45 23 77 27 85 11 3 -6 4 -5 3 2 -4 20 -58 20 -96 -1z"/>
<path d="M784 1723 c-12 -2 -30 -13 -39 -23 -23 -25 -26 -91 -5 -98 12 -4 13
-2 3 9 -15 19 -6 64 19 86 16 15 21 15 28 3 9 -14 14 -53 11 -73 -1 -5 3 -6 8
-3 5 4 8 27 5 51 -4 52 2 55 41 19 23 -21 27 -31 22 -62 -6 -34 -5 -35 8 -18
17 22 10 63 -14 88 -18 19 -55 28 -87 21z"/>
<path d="M805 1590 c-8 -13 9 -20 24 -11 10 6 9 10 -3 14 -8 3 -18 2 -21 -3z"/>
<path d="M1122 1704 c-7 -8 -8 -14 -3 -14 10 0 25 19 20 25 -2 1 -10 -3 -17
-11z"/>
<path d="M1174 1705 c-10 -8 -14 -14 -9 -15 15 0 40 18 34 24 -3 3 -14 -1 -25
-9z"/>
<path d="M1190 1684 c-13 -7 -37 -12 -52 -10 -15 2 -25 -1 -22 -5 10 -16 114
8 114 26 0 8 -13 4 -40 -11z"/>
<path d="M1042 1678 c-8 -10 -3 -13 19 -14 16 -1 29 3 29 9 0 6 -3 7 -7 4 -3
-4 -12 -2 -18 3 -9 7 -16 6 -23 -2z"/>
<path d="M1230 1659 c0 -4 -12 -10 -26 -13 -25 -7 -26 -8 -9 -27 21 -22 34
-17 15 6 -10 12 -10 15 2 15 8 0 22 6 32 13 16 12 16 14 2 14 -9 0 -16 -4 -16
-8z"/>
<path d="M1059 1624 c-43 -13 -96 -54 -71 -54 7 0 12 5 12 10 0 6 7 10 15 10
8 0 15 5 15 10 0 6 6 10 13 9 6 -1 23 2 37 8 14 6 32 13 40 16 32 12 -15 5
-61 -9z"/>
<path d="M1240 1610 c-9 -22 -9 -23 3 -7 8 9 19 17 25 17 6 0 13 4 16 8 2 4
-4 8 -14 8 -11 0 -23 -11 -30 -26z"/>
<path d="M1115 1600 c-3 -5 -1 -10 4 -10 6 0 11 5 11 10 0 6 -2 10 -4 10 -3 0
-8 -4 -11 -10z"/>
<path d="M1010 1568 c0 -9 5 -20 10 -23 13 -8 13 5 0 25 -8 13 -10 13 -10 -2z"/>
<path d="M1330 1571 c0 -7 -4 -9 -10 -6 -5 3 -10 2 -10 -4 0 -5 -8 -12 -17
-14 -14 -4 -15 -5 -2 -6 20 -1 56 25 46 35 -4 4 -7 2 -7 -5z"/>
<path d="M1060 1284 c-28 -20 -31 -24 -14 -24 20 0 62 35 53 44 -2 2 -20 -7
-39 -20z"/>
<path d="M1106 1285 c-19 -28 -10 -34 10 -7 13 16 15 16 33 -5 22 -26 31 -29
31 -10 0 14 -35 47 -49 47 -5 0 -16 -11 -25 -25z"/>
<path d="M1190 1270 c0 -11 5 -20 10 -20 6 0 10 5 10 11 0 8 4 9 13 0 18 -14
30 -2 16 16 -18 20 -49 16 -49 -7z"/>
<path d="M683 1437 l-63 -39 0 -64 c0 -35 4 -64 10 -64 14 0 1 -30 -31 -72
-30 -38 -36 -58 -20 -58 16 0 47 46 71 104 29 72 46 78 53 20 2 -25 7 -47 10
-51 3 -3 31 9 61 27 53 29 56 34 55 68 l-1 37 -11 -33 c-7 -23 -22 -39 -47
-52 -21 -11 -40 -16 -44 -13 -14 14 -6 72 12 82 14 8 16 21 14 78 -2 37 -5 68
-5 69 -1 1 -30 -17 -64 -39z m47 -45 c0 -48 -1 -49 -42 -68 -44 -20 -51 -19
-55 6 -6 34 9 60 50 84 23 14 43 26 45 26 1 0 2 -22 2 -48z"/>
<path d="M860 1185 c-15 -29 -28 -31 -56 -10 -24 18 -34 19 -34 1 0 -8 7 -17
17 -20 14 -6 14 -8 -3 -22 -18 -14 -16 -15 19 -9 21 3 37 2 37 -4 0 -5 3 -16
6 -24 4 -10 -5 -16 -29 -21 -28 -5 -36 -13 -46 -44 -7 -20 -15 -43 -17 -49 -4
-10 2 -10 26 -2 17 6 34 9 37 5 8 -8 -73 -85 -101 -96 -20 -7 -20 -9 -3 -15
14 -6 34 7 84 56 l65 64 -6 -62 c-4 -39 -3 -64 4 -68 5 -3 11 0 11 7 1 7 3 22
4 33 1 11 3 39 3 62 2 40 4 43 39 52 44 13 54 3 42 -43 -18 -72 -21 -77 -40
-71 -24 8 -26 -20 -2 -29 28 -11 61 61 62 136 l1 47 -41 -14 c-55 -20 -69 -19
-69 5 0 13 10 24 25 30 22 8 25 16 25 56 0 42 -2 46 -20 41 -17 -4 -20 -2 -15
14 9 28 -9 23 -25 -6z m48 -61 c-4 -21 -39 -26 -45 -8 -2 7 4 19 13 28 19 20
38 8 32 -20z m-58 -88 c0 -20 -6 -24 -35 -28 -31 -4 -36 -2 -33 16 3 17 25 30
61 35 4 1 7 -10 7 -23z"/>
<path d="M1471 1330 c-1 -8 -3 -37 -4 -65 l-2 -50 -62 -32 c-34 -17 -68 -33
-75 -36 -7 -2 -10 -8 -6 -12 4 -4 35 4 69 19 34 15 64 24 67 21 8 -8 -17 -112
-49 -199 -33 -91 -32 -86 -20 -86 12 0 37 72 71 200 l28 105 66 49 c37 26 69
46 72 43 11 -11 24 -83 23 -132 0 -27 -6 -81 -13 -119 -14 -72 -35 -101 -68
-92 -10 2 -18 0 -18 -5 0 -11 50 -12 67 -1 33 21 58 178 44 287 -5 42 -14 82
-19 87 -6 6 -34 -8 -75 -36 -35 -25 -70 -46 -75 -46 -6 0 -13 26 -15 58 -2 31
-4 50 -6 42z"/>
<path d="M1161 983 c-1 -18 4 -33 9 -33 12 0 12 17 0 45 -7 17 -9 15 -9 -12z"/>
<path d="M1165 930 c-3 -5 -1 -10 4 -10 6 0 11 5 11 10 0 6 -2 10 -4 10 -3 0
-8 -4 -11 -10z"/>
<path d="M1160 900 c0 -5 5 -10 10 -10 6 0 10 5 10 10 0 6 -4 10 -10 10 -5 0
-10 -4 -10 -10z"/>
<path d="M1048 772 c-7 -10 -21 -21 -32 -25 -15 -6 -17 -3 -13 12 3 12 0 18
-7 15 -6 -2 -11 -15 -11 -28 0 -20 3 -23 19 -14 13 7 21 7 25 -1 4 -6 14 4 23
24 17 39 16 44 -4 17z"/>
<path d="M951 773 c1 -4 -1 -16 -6 -26 -4 -10 -5 -20 -3 -22 3 -3 10 6 16 20
7 16 8 26 1 30 -5 4 -9 3 -8 -2z"/>
<path d="M1095 750 c-9 -18 -21 -28 -27 -24 -7 4 -8 3 -4 -4 11 -17 31 -4 43
28 15 39 8 38 -12 0z"/>
<path d="M1292 755 c-17 -37 -14 -45 4 -12 9 16 14 31 11 33 -2 2 -9 -7 -15
-21z"/>
<path d="M1230 740 c0 -6 -4 -8 -10 -5 -5 3 -10 2 -10 -3 0 -5 14 -9 31 -10
19 0 29 4 26 11 -5 16 -37 22 -37 7z"/>
<path d="M1407 723 c-2 -5 -7 -21 -11 -38 -5 -22 -4 -26 4 -15 9 13 10 13 10
0 1 -9 6 -5 15 10 8 14 14 32 14 40 0 8 -7 2 -15 -15 l-15 -30 6 28 c5 26 1
36 -8 20z"/>
<path d="M820 700 c-9 -6 -10 -10 -3 -10 6 0 15 5 18 10 8 12 4 12 -15 0z"/>
<path d="M780 685 c-7 -9 -10 -18 -7 -21 3 -3 10 4 17 15 13 25 8 27 -10 6z"/>
<path d="M1470 681 c0 -6 7 -7 17 -4 10 4 14 2 9 -5 -4 -7 1 -10 14 -7 25 5
35 -11 20 -30 -7 -8 -9 -15 -5 -15 9 0 34 31 35 43 0 5 -5 5 -12 1 -7 -5 -9
-2 -6 7 5 12 -3 16 -33 18 -21 1 -39 -3 -39 -8z"/>
<path d="M817 667 c-3 -8 1 -14 9 -14 8 0 14 6 14 14 0 7 -4 13 -9 13 -5 0
-11 -6 -14 -13z"/>
<path d="M1051 614 c0 -11 3 -14 6 -6 3 7 2 16 -1 19 -3 4 -6 -2 -5 -13z"/>
<path d="M1440 70 c0 -5 5 -10 11 -10 5 0 7 5 4 10 -3 6 -8 10 -11 10 -2 0 -4
-4 -4 -10z"/>
</g>
</svg>
