<?xml version="1.0" standalone="no"?>
<!DOCTYPE svg PUBLIC "-//W3C//DTD SVG 20010904//EN"
 "http://www.w3.org/TR/2001/REC-SVG-20010904/DTD/svg10.dtd">
<svg version="1.0" xmlns="http://www.w3.org/2000/svg"
 width="75.000000pt" height="75.000000pt" viewBox="0 0 75.000000 75.000000"
 preserveAspectRatio="xMidYMid meet">

<g transform="translate(0.000000,75.000000) scale(0.100000,-0.100000)"
fill="#000000" stroke="none">
<path d="M283 657 l-63 -39 0 -64 c0 -35 4 -64 10 -64 13 0 1 -28 -33 -77 -17
-24 -27 -46 -24 -50 13 -12 46 29 72 92 35 80 51 88 58 29 2 -25 7 -47 10 -51
3 -3 31 9 61 27 53 29 56 34 55 68 l-1 37 -11 -33 c-7 -23 -22 -39 -47 -52
-21 -11 -40 -16 -44 -13 -14 14 -6 72 12 82 14 8 16 21 14 78 -2 37 -5 68 -5
69 -1 1 -30 -17 -64 -39z m47 -45 c0 -48 -1 -49 -42 -68 -44 -20 -51 -19 -55
6 -6 34 9 60 50 84 23 14 43 26 45 26 1 0 2 -22 2 -48z"/>
<path d="M460 405 c-15 -29 -28 -31 -56 -10 -24 18 -34 19 -34 1 0 -8 7 -17
17 -20 14 -6 14 -8 -3 -22 -18 -14 -16 -15 19 -9 21 3 37 2 37 -4 0 -5 3 -16
6 -24 4 -10 -5 -16 -29 -21 -28 -5 -36 -13 -46 -44 -7 -20 -15 -43 -17 -49 -4
-10 2 -10 26 -2 17 6 34 9 37 5 8 -8 -73 -85 -101 -96 -20 -7 -20 -9 -3 -15
14 -6 34 7 84 56 l65 64 -6 -62 c-4 -39 -3 -64 4 -68 5 -3 11 0 11 7 1 7 3 22
4 33 1 11 3 39 3 62 2 40 4 43 39 52 44 13 54 3 42 -43 -18 -72 -21 -77 -40
-71 -24 8 -26 -20 -2 -29 28 -11 61 61 62 136 l1 47 -41 -14 c-55 -20 -69 -19
-69 5 0 13 10 24 25 30 22 8 25 16 25 56 0 42 -2 46 -20 41 -17 -4 -20 -2 -15
14 9 28 -9 23 -25 -6z m48 -61 c-4 -21 -39 -26 -45 -8 -2 7 4 19 13 28 19 20
38 8 32 -20z m-58 -88 c0 -20 -6 -24 -35 -28 -31 -4 -36 -2 -33 16 3 17 25 30
61 35 4 1 7 -10 7 -23z"/>
</g>
</svg>
