<?xml version="1.0" standalone="no"?>
<!DOCTYPE svg PUBLIC "-//W3C//DTD SVG 20010904//EN"
 "http://www.w3.org/TR/2001/REC-SVG-20010904/DTD/svg10.dtd">
<svg version="1.0" xmlns="http://www.w3.org/2000/svg"
 width="64.000000pt" height="64.000000pt" viewBox="0 0 64.000000 64.000000"
 preserveAspectRatio="xMidYMid meet">

<g transform="translate(0.000000,64.000000) scale(0.100000,-0.100000)"
fill="#000000" stroke="none">
<path d="M270 471 c-15 -4 -26 -15 -28 -29 -2 -12 -17 -34 -33 -49 -16 -15
-29 -31 -29 -35 0 -3 12 -20 26 -37 14 -17 22 -35 19 -41 -9 -15 -34 7 -46 38
-10 26 -19 25 -23 -1 -1 -8 -8 -22 -15 -31 -11 -13 -11 -20 3 -41 9 -13 16
-32 16 -42 0 -10 -32 -50 -72 -90 -40 -40 -69 -76 -65 -80 11 -10 147 128 154
156 6 26 66 84 90 87 26 4 76 62 69 80 -6 17 37 74 56 74 16 0 7 -25 -19 -52
-32 -33 -23 -51 10 -20 31 29 41 28 33 -4 -6 -21 -4 -25 8 -21 32 13 27 -16
-10 -54 -24 -25 -33 -39 -23 -39 8 0 28 14 44 30 19 20 32 27 39 20 7 -7 -3
-23 -29 -50 -26 -27 -34 -40 -23 -40 8 0 21 7 28 15 18 22 28 18 35 -13 6 -31
120 -150 131 -139 4 4 -20 36 -54 71 -60 62 -68 79 -63 136 1 13 -4 29 -11 35
-8 5 -17 17 -21 25 -4 8 -16 29 -26 45 -11 17 -20 37 -20 45 -1 16 -85 61
-111 59 -8 -1 -26 -4 -40 -8z m79 -25 c9 -10 7 -16 -5 -27 -12 -10 -17 -10
-23 0 -5 7 -14 12 -22 11 -25 -4 -39 0 -39 9 0 21 73 27 89 7z m-60 -70 c22
-23 29 -36 21 -41 -13 -8 -70 42 -70 62 0 21 14 15 49 -21z m-35 -35 c41 -43
23 -61 -20 -20 -18 18 -31 36 -28 41 9 14 19 9 48 -21z m-65 -75 c9 -10 9 -16
1 -21 -13 -8 -42 14 -34 26 8 13 20 11 33 -5z"/>
<path d="M371 306 c-14 -14 -21 -29 -17 -33 9 -9 49 32 44 47 -2 6 -13 1 -27
-14z"/>
<path d="M370 165 c-14 -15 -38 -33 -55 -40 -36 -15 -112 -92 -102 -102 4 -4
29 14 55 39 26 25 56 49 68 52 27 8 67 51 62 66 -2 6 -14 0 -28 -15z"/>
<path d="M350 99 c0 -19 67 -85 77 -75 4 3 -12 26 -35 49 -26 26 -42 36 -42
26z"/>
</g>
</svg>
