<?xml version="1.0" standalone="no"?>
<!DOCTYPE svg PUBLIC "-//W3C//DTD SVG 20010904//EN"
 "http://www.w3.org/TR/2001/REC-SVG-20010904/DTD/svg10.dtd">
<svg version="1.0" xmlns="http://www.w3.org/2000/svg"
 width="62.000000pt" height="57.000000pt" viewBox="0 0 62.000000 57.000000"
 preserveAspectRatio="xMidYMid meet">

<g transform="translate(0.000000,57.000000) scale(0.100000,-0.100000)"
fill="#000000" stroke="none">
<path d="M257 500 c-6 -24 -57 -29 -57 -5 0 8 -4 15 -10 15 -5 0 -10 -9 -10
-20 0 -15 -7 -20 -25 -20 -14 0 -28 7 -31 15 -11 29 -24 15 -24 -27 0 -25 -7
-49 -17 -61 -18 -19 -17 -19 17 -13 19 4 42 10 52 12 9 3 19 0 23 -6 13 -22
25 -8 25 29 0 33 3 39 25 43 33 7 35 3 35 -59 0 -29 5 -53 10 -53 12 0 14 157
1 164 -5 3 -11 -3 -14 -14z m-82 -65 c0 -15 -8 -21 -29 -23 -23 -3 -28 0 -22
13 3 9 6 21 6 27 0 5 10 8 23 6 14 -2 22 -10 22 -23z"/>
<path d="M116 349 c3 -6 0 -15 -7 -20 -23 -14 -3 -21 33 -11 18 5 67 8 108 6
50 -2 68 0 55 6 -11 5 -53 9 -92 9 -42 1 -73 5 -73 11 0 6 -7 10 -16 10 -8 0
-12 -5 -8 -11z"/>
<path d="M480 220 c0 -53 -3 -70 -14 -70 -7 0 -19 -7 -26 -15 -17 -20 -24 -19
-57 10 l-28 25 37 35 38 35 -39 0 c-33 0 -40 4 -44 23 l-4 22 -8 -22 c-7 -22
-37 -39 -53 -29 -4 2 -14 0 -22 -5 -10 -7 6 -9 53 -7 37 2 67 1 67 -2 0 -8
-98 -80 -109 -80 -13 0 -35 -29 -27 -37 3 -3 14 0 23 9 10 8 30 22 45 31 27
17 28 16 61 -13 19 -16 38 -26 42 -22 5 4 5 -1 2 -11 -8 -20 8 -55 32 -74 25
-19 55 -15 79 10 30 32 29 77 -3 107 -31 29 -33 60 -5 60 11 0 20 5 20 11 0 6
-9 8 -20 4 -18 -6 -20 -2 -20 34 0 23 -4 41 -10 41 -6 0 -10 -30 -10 -70z m42
-97 c23 -21 23 -55 -1 -77 -20 -18 -51 -15 -78 6 -20 16 -15 55 9 72 29 20 47
20 70 -1z"/>
</g>
</svg>
