<svg width="64" height="64" viewBox="0 0 64 64" fill="none" xmlns="http://www.w3.org/2000/svg">
<path d="M3.84009 32V60.16H32.0001C49.9201 60.16 60.1601 59.648 60.1601 58.88C60.1601 58.112 59.0081 57.6 57.6001 57.6C55.4241 57.6 55.0401 56.704 55.0401 51.328C55.0401 46.208 55.4241 44.928 57.6001 44.416C59.9041 43.776 60.1601 42.624 60.1601 34.176C60.1601 22.016 58.7521 20.48 47.1041 20.48C35.9681 20.48 34.5601 22.016 34.5601 34.432C34.5601 42.624 34.8161 43.776 37.1201 44.416C39.2961 44.928 39.6801 46.208 39.6801 51.328C39.6801 57.472 39.5521 57.6 35.8401 57.6H32.0001V42.24V26.88H28.1601H24.3201V42.24C24.3201 51.584 23.8081 57.6 23.0401 57.6C22.2721 57.6 21.7601 53.12 21.7601 46.72V35.84H17.9201H14.0801V46.72C14.0801 53.12 13.5681 57.6 12.8001 57.6C12.1601 57.6 11.5201 54.4 11.5201 50.56C11.5201 44.416 11.2641 43.52 8.96009 43.52C6.52809 43.52 6.40009 42.624 6.40009 23.68C6.40009 11.264 5.88809 3.84003 5.12009 3.84003C4.35209 3.84003 3.84009 14.08 3.84009 32ZM56.0641 24.576C57.9841 26.496 58.1121 42.24 56.3201 42.24C55.6801 42.24 55.0401 39.68 55.0401 36.48C55.0401 33.28 54.5281 30.72 53.7601 30.72C52.9921 30.72 52.4801 36.096 52.4801 44.16C52.4801 55.296 52.0961 57.6 50.5601 57.6C49.0241 57.6 48.6401 55.808 48.6401 49.28C48.6401 44.544 48.1281 40.96 47.3601 40.96C46.5921 40.96 46.0801 44.544 46.0801 49.28C46.0801 55.808 45.6961 57.6 44.1601 57.6C42.6241 57.6 42.2401 55.296 42.2401 44.16C42.2401 36.096 41.7281 30.72 40.9601 30.72C40.3201 30.72 39.6801 33.28 39.6801 36.48C39.6801 39.68 39.1681 42.24 38.4001 42.24C36.6081 42.24 36.7361 26.496 38.6561 24.576C40.7041 22.528 54.0161 22.528 56.0641 24.576ZM29.4401 43.52C29.4401 52.096 28.9281 57.6 28.1601 57.6C27.3921 57.6 26.8801 52.096 26.8801 43.52C26.8801 34.944 27.3921 29.44 28.1601 29.44C28.9281 29.44 29.4401 34.944 29.4401 43.52ZM19.2001 48C19.2001 53.504 18.6881 57.6 17.9201 57.6C17.1521 57.6 16.6401 53.504 16.6401 48C16.6401 42.496 17.1521 38.4 17.9201 38.4C18.6881 38.4 19.2001 42.496 19.2001 48ZM8.96009 51.84C8.96009 55.04 8.44809 57.6 7.68009 57.6C7.04009 57.6 6.40009 55.04 6.40009 51.84C6.40009 48.64 7.04009 46.08 7.68009 46.08C8.44809 46.08 8.96009 48.64 8.96009 51.84Z" fill="black"/>
<path d="M42.2402 6.40001C40.8322 7.80801 39.6802 10.112 39.6802 11.52C39.6802 12.928 40.8322 15.232 42.2402 16.64C43.6482 18.048 45.9522 19.2 47.3602 19.2C50.6882 19.2 55.0402 14.848 55.0402 11.52C55.0402 10.112 53.8882 7.80801 52.4802 6.40001C51.0722 4.99201 48.7682 3.84001 47.3602 3.84001C45.9522 3.84001 43.6482 4.99201 42.2402 6.40001ZM51.2002 8.32001C54.5282 12.416 49.5362 18.688 45.1842 15.872C42.2402 14.08 41.6002 10.624 43.5202 8.32001C45.5682 5.88801 49.1522 5.88801 51.2002 8.32001Z" fill="black"/>
</svg>
