<?xml version="1.0" standalone="no"?>
<!DOCTYPE svg PUBLIC "-//W3C//DTD SVG 20010904//EN"
 "http://www.w3.org/TR/2001/REC-SVG-20010904/DTD/svg10.dtd">
<svg version="1.0" xmlns="http://www.w3.org/2000/svg"
 width="50.000000pt" height="54.000000pt" viewBox="0 0 50.000000 54.000000"
 preserveAspectRatio="xMidYMid meet">

<g transform="translate(0.000000,54.000000) scale(0.100000,-0.100000)"
fill="#000000" stroke="none">
<path d="M211 500 c-1 -8 -3 -37 -4 -65 l-2 -50 -62 -32 c-34 -17 -68 -33 -75
-36 -7 -2 -10 -8 -6 -12 4 -4 35 4 69 19 34 15 64 24 67 21 8 -8 -17 -112 -49
-199 -33 -91 -32 -86 -20 -86 12 0 37 72 71 200 l28 105 66 49 c37 26 69 46
72 43 11 -11 24 -83 23 -132 0 -27 -6 -81 -13 -119 -14 -72 -35 -101 -68 -92
-10 2 -18 0 -18 -5 0 -11 50 -12 67 -1 33 21 58 178 44 287 -5 42 -14 82 -19
87 -6 6 -34 -8 -75 -36 -35 -25 -70 -46 -75 -46 -6 0 -13 26 -15 58 -2 31 -4
50 -6 42z"/>
</g>
</svg>
